<svg id="Capa_1" enable-background="new 0 0 512 512" height="512" viewBox="0 0 512 512" width="512" xmlns="http://www.w3.org/2000/svg"><g><g id="_x30_1_calendar"><g id="XMLID_2_"><path id="XMLID_76_" d="m361.412 230.902h-232.898l-10.863-42.636c-1.133-4.447-5.139-7.561-9.728-7.561h-37.648c-5.545 0-10.039 4.495-10.039 10.039 0 5.545 4.495 10.039 10.039 10.039h29.846l38.278 153.176c-10.549 4.689-17.927 15.261-17.927 27.53 0 16.607 13.511 30.118 30.118 30.118h11.766c-1.114 3.142-1.727 6.519-1.727 10.039 0 16.607 13.511 30.118 30.118 30.118s30.118-13.511 30.118-30.118c0-3.52-.612-6.897-1.727-10.039h63.689c-1.114 3.142-1.727 6.519-1.727 10.039 0 16.607 13.511 30.118 30.118 30.118s30.118-13.511 30.118-30.118c0-3.52-.612-6.897-1.727-10.039h11.766c5.544 0 10.039-4.496 10.039-10.039 0-5.544-4.496-10.039-10.039-10.039h-200.787c-5.536 0-10.039-4.504-10.039-10.039 0-5.536 4.504-10.039 10.039-10.039h210.824c5.544 0 10.039-4.496 10.039-10.039v-120.471c0-5.544-4.496-10.039-10.039-10.039zm-160.628 190.745c0 5.536-4.504 10.039-10.039 10.039-5.536 0-10.039-4.504-10.039-10.039 0-5.536 4.504-10.039 10.039-10.039 5.536 0 10.039 4.503 10.039 10.039zm120.471 0c0 5.536-4.504 10.039-10.039 10.039-5.536 0-10.039-4.504-10.039-10.039 0-5.536 4.504-10.039 10.039-10.039s10.039 4.503 10.039 10.039zm-32.318-70.274-5.02-20.078h24.481l5.02 20.078zm-45.177 0-5.02-20.078h24.48l5.02 20.078zm-45.176 0-5.02-20.078h24.48l5.02 20.078zm-45.122-20.079h19.405l5.02 20.078h-19.445zm44.503-80.314 5.02 20.078h-24.48l-5.02-20.078zm45.177 0 5.02 20.078h-24.48l-5.02-20.078zm45.177 0 5.02 20.078h-24.481l-5.02-20.078zm-35.138 40.157 5.02 20.078h-24.48l-5.02-20.078zm-45.176 0 5.02 20.078h-24.48l-5.02-20.078zm-40.157 20.079h-19.365l-4.979-20.078h19.324zm111.049 0-5.02-20.078h24.481l5.02 20.078zm40.157-20.079h32.318v20.078h-27.299zm32.319-20.078h-37.338l-5.02-20.078h42.357v20.078zm-198.584-20.079 5.02 20.078h-19.284l-4.979-20.078zm181.324 100.393-5.02-20.078h22.279v20.078z"/><path id="XMLID_106_" d="m501.961 60.235h-55.216v-30.117c0-5.545-4.496-10.039-10.039-10.039h-40.157c-5.544 0-10.039 4.495-10.039 10.039v30.118h-20.078v-30.118c0-5.545-4.496-10.039-10.039-10.039h-40.157c-5.544 0-10.039 4.495-10.039 10.039v30.118h-20.078v-30.118c0-5.545-4.496-10.039-10.039-10.039h-40.157c-5.545 0-10.039 4.495-10.039 10.039v30.118h-20.078v-30.118c0-5.545-4.495-10.039-10.039-10.039h-40.157c-5.545 0-10.039 4.495-10.039 10.039v30.118h-20.081v-30.118c0-5.545-4.495-10.039-10.039-10.039h-40.157c-5.545 0-10.039 4.495-10.039 10.039v30.118h-55.216c-5.544-.001-10.039 4.494-10.039 10.039v411.608c0 5.544 4.495 10.039 10.039 10.039h396.549c2.752 0 5.383-1.129 7.278-3.124l95.373-100.392c1.773-1.865 2.761-4.341 2.761-6.915v-311.216c0-5.545-4.496-10.04-10.039-10.04zm-95.373-20.078h20.078v60.235h-20.078zm-80.313 0h20.078v60.235h-20.078zm-80.314 0h20.078v60.235h-20.078zm-80.314 0h20.078v60.235h-20.078zm-80.314 0h20.078v60.235h-20.078zm-20.078 40.157v30.118c0 5.545 4.495 10.039 10.039 10.039h40.157c5.545 0 10.039-4.495 10.039-10.039v-30.118h20.078v30.118c0 5.545 4.495 10.039 10.039 10.039h40.157c5.545 0 10.039-4.495 10.039-10.039v-30.118h20.078v30.118c0 5.545 4.495 10.039 10.039 10.039h40.157c5.544 0 10.039-4.495 10.039-10.039v-30.118h20.078v30.118c0 5.545 4.496 10.039 10.039 10.039h40.157c5.544 0 10.039-4.495 10.039-10.039v-30.118h20.078v30.118c0 5.545 4.496 10.039 10.039 10.039h40.157c5.544 0 10.039-4.495 10.039-10.039v-30.118h45.176v60.235h-471.84v-60.235zm-45.177 80.313h471.843v210.824h-85.333c-5.544 0-10.039 4.496-10.039 10.039v90.353h-376.471zm458.498 230.902-61.949 65.21v-65.21z"/></g></g></g></svg>