<svg id="Layer_1" viewBox="0 0 512 512" xmlns="http://www.w3.org/2000/svg" data-name="Layer 1"><path d="m502.983 445.398-106.783-184.953c-5.504-9.533-14.267-15.719-24.646-17.631v-121.959c0-2.501-1.334-4.812-3.5-6.062l-58.51-33.779c-1.741-1.005-3.829-1.212-5.733-.571l-24.303 8.184c-2.774.934-4.675 3.496-4.764 6.422l-1.125 37.146-54.321 8.386 39.477-22.793c2.313-1.335 3.664-3.87 3.483-6.535l-1.878-27.695 16.387-9.285c2.185-1.237 3.538-3.551 3.549-6.062.01-2.511-1.325-4.835-3.5-6.091l-85.547-49.392c-2.167-1.25-4.835-1.249-7 0l-176.78 102.065c-2.166 1.251-3.5 3.562-3.5 6.062v96.814c0 2.429 1.26 4.685 3.327 5.959 2.07 1.274 4.651 1.385 6.818.294l14.429-7.258-8.379 19.804c-.783 1.851-.733 3.948.138 5.76.87 1.812 2.478 3.161 4.411 3.706l16.808 4.731-11.026 10.644c-2.26 2.182-2.79 5.602-1.297 8.364l12.946 23.953-27.744-15.599c-2.168-1.219-4.818-1.196-6.965.06s-3.466 3.556-3.466 6.042v40.856c0 2.501 1.334 4.812 3.5 6.062l176.783 102.067c1.083.625 2.291.938 3.5.938s2.417-.312 3.5-.938l62.919-36.327-28.066 48.61c-6.702 11.611-6.702 24.93 0 36.541 6.703 11.61 18.238 18.27 31.646 18.27h213.565c13.407 0 24.941-6.659 31.645-18.27 6.705-11.611 6.705-24.93 0-36.541zm-221.476-300.257c3.334-.515 5.827-3.334 5.93-6.706l1.154-38.096 16.691-5.621 45.272 26.137-162.783 93.984-48.549-28.03 46.585-26.896 95.699-14.773zm-31.859-71.595c-2.341 1.326-3.715 3.878-3.532 6.563l1.88 27.734-68.049 39.289s-54.723 31.594-54.723 31.594l-37.688-21.759 162.783-93.981 8.9 5.138-9.57 5.423zm-169.112 95.547 37.688 21.759v49.713l-37.688-21.759zm107.233-142.219 48.549 28.029-162.783 93.983-48.549-28.029zm-169.78 269.222 38.409 21.595c2.718 1.529 6.116 1.074 8.339-1.11 2.223-2.186 2.731-5.577 1.25-8.319l-21.927-40.569 15.977-15.422c1.804-1.741 2.539-4.313 1.927-6.745s-2.478-4.35-4.891-5.029l-20.901-5.885 12.705-30.03c1.144-2.703.48-5.832-1.662-7.838-2.144-2.006-5.308-2.461-7.93-1.143l-21.296 10.713v-73.33l48.547 28.028v61.837c0 2.501 1.334 4.812 3.5 6.062l51.688 29.842c1.083.625 2.291.938 3.5.938s2.417-.312 3.5-.938c2.166-1.251 3.5-3.562 3.5-6.062v-53.754l48.549 28.029v187.964l-162.784-93.985v-24.85zm176.783 118.833v-187.964l162.782-93.983v109.833c-10.379 1.912-19.141 8.099-24.644 17.631l-64.718 112.093-73.421 42.39zm296.087 60.011c-4.196 7.268-11.129 11.27-19.521 11.27h-213.565c-8.393 0-15.326-4.002-19.521-11.27-4.196-7.268-4.196-15.273 0-22.541l106.784-184.953c4.195-7.269 11.128-11.271 19.52-11.271s15.325 4.003 19.521 11.271l106.784 184.953c4.196 7.268 4.196 15.273 0 22.541zm-116.158-202.081c-2.244-3.888-5.658-5.859-10.146-5.859s-7.902 1.972-10.146 5.858l-106.783 184.954c-2.244 3.888-2.243 7.83 0 11.714 2.244 3.888 5.657 5.859 10.147 5.859h213.565c4.487 0 7.901-1.971 10.146-5.858 2.243-3.887 2.243-7.828 0-11.716zm-112.974 188.525 102.828-178.1 102.825 178.101h-205.653zm87.773-135.02c-2.868 3.047-4.249 6.866-3.995 11.043l3.893 64.017c.438 7.21 6.44 12.857 13.664 12.857h2.984c7.224 0 13.226-5.647 13.664-12.857l3.893-64.017c.254-4.177-1.127-7.996-3.995-11.044-2.868-3.047-6.596-4.657-10.781-4.657h-8.545c-4.186 0-7.913 1.61-10.781 4.658zm19.912 9.594c.206.22.234.298.216.599l-3.874 63.725h-2.4l-3.874-63.725c-.019-.301.01-.379.216-.599.206-.219.283-.252.586-.252h8.545c.303 0 .38.033.586.252zm-4.858 84.305c-9.479 0-17.191 7.712-17.191 17.191s7.712 17.192 17.191 17.192 17.192-7.713 17.192-17.192-7.713-17.191-17.192-17.191zm0 20.384c-1.76 0-3.191-1.432-3.191-3.192s1.432-3.191 3.191-3.191 3.192 1.432 3.192 3.191-1.432 3.192-3.192 3.192z"/></svg>