<svg id="svg5" height="512" viewBox="0 0 13.758332 13.758332" width="512" xmlns="http://www.w3.org/2000/svg" xmlns:svg="http://www.w3.org/2000/svg"><g id="layer1"><path id="path8185" d="m1.0127811 1.5872413c-.14632778.0002911-.26463824.1192898-.2640665.2656168.00056885.14552.11854557.2632668.2640665.2635499h1.5585611l2.1735105 8.262027c-.1844978.190842-.2986897.450128-.2986897.734323 0 .581366.477483 1.058333 1.0588499 1.058333.5813671 0 1.0583335-.476967 1.0583333-1.058333 0-.192234-.052277-.373194-.1431436-.529167h3.1274573c-.090581.155973-.1426268.336933-.1426268.529167-.0000003.581366.475416 1.058333 1.0567829 1.058333.581367 0 1.05885-.476966 1.05885-1.058333 0-.581369-.477483-1.05885-1.05885-1.05885-1.7449009.000502-3.506424 0-5.2560095 0l-.243396-.9255253h6.4719555c.120206-.000062.225269-.08114.255799-.197404l1.310514-4.8942748c.044191-.1670354-.080955-.3309226-.253731-.3322793h-9.2118404l-.5048787-1.9197795c-.0305303-.1162645-.1355921-.1973426-.2557983-.1974038zm2.6618528 2.6463499h8.7265981l-1.169954 4.3656245h-6.4083939zm2.6556517.9916707c-.1461257-.0000008-.2645841.1184576-.2645833.2645833v1.8520835c-.0000008.146125.1184576.264584.2645833.264583.1461256.000001.2645841-.118458.2645833-.264583v-1.8520835c.0000008-.1461257-.1184577-.2645841-.2645833-.2645833zm1.7197915 0c-.1461257-.0000008-.2645841.1184576-.2645833.2645833v1.8520835c-.0000008.146125.1184576.264584.2645833.264583.1461257.000001.2645841-.118458.2645833-.264583v-1.8520835c.0000008-.1461257-.1184576-.2645841-.2645833-.2645833zm1.7197915 0c-.1461257-.0000008-.2645841.1184576-.2645833.2645833v1.8520835c-.0000008.146125.1184576.264584.2645833.264583.1461257.000001.2645844-.118458.2645834-.264583v-1.8520835c.000001-.1461257-.1184577-.2645841-.2645834-.2645833zm-4.2648557 5.3583291c.2953843 0 .5291666.233781.5291666.529167 0 .295384-.2337823.529166-.5291666.529166-.2953842 0-.5296833-.233782-.5296833-.529166 0-.295386.2342991-.529167.5296833-.529167zm4.9568031 0c.295384 0 .529166.233781.529166.529167 0 .295384-.233782.529166-.529166.529166s-.5270998-.233782-.5270996-.529166c-.0000002-.295386.2317156-.529167.5270996-.529167z"/></g></svg>